<svg xmlns="http://www.w3.org/2000/svg" viewBox="0 0 240 234"><rect width="240" height="234" fill="#00005b" class="cls-1" rx="42.5"/><g fill="#99f"><path d="M96.415 140H59.224l-7.567 23.551A1.894 1.894 0 0 1 49.725 165H30.888q-1.612 0-1.127-1.771l32.2-92.353c.322-.966.644-1.91.966-3.145a34.395 34.395 0 0 0 .644-6.52.997.997 0 0 1 1.127-1.128h25.599q1.124 0 1.288.806l36.547 102.5q.482 1.612-.966 1.611h-20.93a1.488 1.488 0 0 1-1.61-1.127ZM65.02 120.142h25.438q-.966-3.218-2.254-7.245-1.29-4.022-2.737-8.613l-2.898-9.177q-1.449-4.589-2.657-8.855-1.207-4.264-2.173-7.809h-.161a129.838 129.838 0 0 1-3.381 12.88q-2.257 7.245-4.589 14.812-2.335 7.57-4.588 14.007ZM187.38 130.833h-31.716a22.618 22.618 0 0 0 3.06 8.87 16.564 16.564 0 0 0 7.324 6.038 30.59 30.59 0 0 0 12.8 2.509 58.003 58.003 0 0 0 10.384-1.14 38.274 38.274 0 0 0 8.929-2.328c.535-.427.805-.16.805.806v15.295a2.384 2.384 0 0 1-.242 1.207 2.31 2.31 0 0 1-.724.724 40.944 40.944 0 0 1-9.975 2.972 70.76 70.76 0 0 1-14.168 1.207q-11.434 0-19.16-3.542a34.147 34.147 0 0 1-12.557-9.499 37.197 37.197 0 0 1-6.923-13.121 51.668 51.668 0 0 1-2.093-14.57 50.746 50.746 0 0 1 2.496-15.86 41.425 41.425 0 0 1 7.486-13.684 35.964 35.964 0 0 1 12.075-9.5c4.722-2.306 10.304-3.134 16.744-3.134a36.335 36.335 0 0 1 15.536 3.06 27.382 27.382 0 0 1 10.546 7.964 36.616 36.616 0 0 1 5.957 11.35 40.448 40.448 0 0 1 1.932 12.236q0 3.543-.242 6.44-.24 2.898-.402 4.186a1.459 1.459 0 0 1-1.45 1.288q-.965 0-3.3.242-2.335.241-5.795.322c-2.31.055-4.75-.338-7.326-.338Zm-31.716-14.666h21.09q3.865 0 5.716-.08a5.624 5.624 0 0 0 2.335-.775v-.966a12.88 12.88 0 0 0-.644-3.703 13.153 13.153 0 0 0-13.04-9.177 13.986 13.986 0 0 0-13.284 7.567 23.29 23.29 0 0 0-2.173 7.134Z" class="cls-2"/></g></svg>