<svg xmlns="http://www.w3.org/2000/svg" viewBox="0 0 240 234"><rect width="240" height="234" fill="#300" class="cls-1" rx="42.5"/><g fill="#ff9a00"><path d="M116.3 140.428H79.11l-7.568 23.506a1.894 1.894 0 0 1-1.932 1.45H50.773q-1.61 0-1.127-1.772l32.2-92.736q.484-1.449.967-3.3a34.478 34.478 0 0 0 .643-6.52.996.996 0 0 1 1.128-1.128h25.598q1.125 0 1.288.805l36.548 103.04q.482 1.612-.967 1.61h-20.93a1.488 1.488 0 0 1-1.61-1.127Zm-31.395-20.286h25.438q-.966-3.218-2.254-7.245-1.29-4.022-2.736-8.613l-2.899-9.177q-1.449-4.589-2.656-8.855-1.208-4.264-2.173-7.809h-.162a130.107 130.107 0 0 1-3.38 12.88q-2.257 7.245-4.59 14.812-2.335 7.57-4.588 14.007ZM169.75 76.994a11.678 11.678 0 0 1-8.855-3.542 12.737 12.737 0 0 1-3.38-9.177 11.813 11.813 0 0 1 3.622-8.935 12.441 12.441 0 0 1 8.935-3.462q5.797 0 9.097 3.462a12.43 12.43 0 0 1 3.3 8.935 12.574 12.574 0 0 1-3.461 9.177 12.354 12.354 0 0 1-9.258 3.542Zm-11.109 86.78V86.814c0-.966.428-1.449 1.288-1.449h19.803q1.287 0 1.289 1.45v76.957q0 1.612-1.289 1.61H160.09q-1.448 0-1.449-1.61Z" class="cls-2"/></g></svg>