<?xml version="1.0" encoding="UTF-8"?>
<svg id="Layer_1" data-name="Layer 1" xmlns="http://www.w3.org/2000/svg" version="1.1" viewBox="0 0 768 768">
  <defs>
    <style>
      .cls-1 {
        fill: #fff;
        stroke-width: 0px;
      }
    </style>
  </defs>
  <path class="cls-1" d="M311.46,484.89c0-11.06-.96-21.12-2.9-30.17-1.93-9.07-5.01-16.14-9.22-21.22-4.21-5.09-10.01-7.63-17.39-7.63-7.02,0-12.65,2.54-16.86,7.63-4.22,5.08-7.29,12.15-9.22,21.22-1.93,9.05-2.9,19.12-2.9,30.17,0,1.53.06,2.97.1,4.45h-70.63c-.02-1.49-.07-2.95-.07-4.45,0-32.27,4.21-61.12,12.65-86.54,8.43-25.43,20.2-45.42,35.3-60.01,15.11-14.59,32.5-21.88,52.16-21.88,19.32,0,36.54,7.29,51.64,21.88,15.11,14.59,26.87,34.59,35.3,60.01,8.43,25.42,12.65,54.26,12.65,86.54,0,1.5-.06,2.96-.07,4.45h-70.63c.03-1.48.1-2.93.1-4.45Z"/>
  <polygon class="cls-1" points="495.77 489.34 495.77 431.84 422.82 431.84 422.82 278.66 336.62 278.66 336.62 489.34 495.77 489.34"/>
  <path class="cls-1" d="M585.63,489.34h-83.11l.14-4.88c.3-10.16,1.54-19.3,3.69-27.16,2.66-9.64,6.99-17.39,12.9-23.06,6.2-5.93,14.44-8.94,24.5-8.94s18.96,3.01,25.16,8.94c5.92,5.68,10.26,13.43,12.9,23.06h0c2.16,7.84,3.4,16.98,3.7,27.17l.14,4.87ZM512.35,479.87h63.44c-.47-7.46-1.52-14.19-3.13-20.06h0c-2.18-7.95-5.65-14.25-10.31-18.73-4.43-4.24-10.52-6.31-18.6-6.31-7.64,0-13.51,2.06-17.94,6.31-4.65,4.46-8.12,10.76-10.31,18.72-1.61,5.87-2.66,12.6-3.13,20.06Z"/>
</svg>