<svg xmlns="http://www.w3.org/2000/svg" viewBox="0 0 240 234"><path fill="#00005b" d="M42.5 0h155A42.464 42.464 0 0 1 240 42.5v149a42.464 42.464 0 0 1-42.5 42.5h-155A42.464 42.464 0 0 1 0 191.5v-149A42.464 42.464 0 0 1 42.5 0Z"/><g fill="#99f"><path d="M57 164.1V61.2c0-.7.3-1.1 1-1.1 1.7 0 3.3 0 5.6-.1 2.4-.1 4.9-.1 7.6-.2s5.6-.1 8.7-.2 6.1-.1 9.1-.1c8.2 0 15 1 20.6 3.1a35.71 35.71 0 0 1 13.4 8.2 31.84 31.84 0 0 1 7.3 11.4 38.275 38.275 0 0 1 2.3 13q0 12.9-6 21.3a34.26 34.26 0 0 1-16.1 12.2c-6.8 2.5-14.3 3.4-22.5 3.4-2.4 0-4 0-5-.1s-2.4-.1-4.3-.1V164a1.244 1.244 0 0 1-1.1 1.4H58.2c-.8 0-1.2-.4-1.2-1.3Zm21.8-84.7V113c1.4.1 2.7.2 3.9.2H88a37.354 37.354 0 0 0 11.5-1.8 17.2 17.2 0 0 0 8.2-5.3c2.1-2.5 3.1-5.9 3.1-10.3a16.459 16.459 0 0 0-2.3-8.9 14.5 14.5 0 0 0-7-5.7 29.343 29.343 0 0 0-11.8-2c-2.6 0-4.9 0-6.8.1a22.9 22.9 0 0 0-4.1.1ZM146.6 85.2h17.5a2.252 2.252 0 0 1 2.1 1.6 10.154 10.154 0 0 1 .6 2.5c.2 1 .4 2.1.5 3.1.1 1.1.2 2.3.2 3.6a37.218 37.218 0 0 1 10.7-8.6 30.992 30.992 0 0 1 15.2-3.9 1.244 1.244 0 0 1 1.4 1.1v19.9c0 .8-.5 1.1-1.6 1.1a43.481 43.481 0 0 0-10.8 1 41.151 41.151 0 0 0-8.4 2.7 15.545 15.545 0 0 0-5.1 3.7v51c0 1-.4 1.4-1.3 1.4h-19.7a1.383 1.383 0 0 1-1.6-1.2v-55.8c0-2.4 0-4.9-.1-7.5s-.1-5.2-.2-7.8c0-2.3-.2-4.5-.4-6.8a.921.921 0 0 1 .7-1.1c0-.1.2-.1.3 0Z"/></g></svg>